<svg xmlns="http://www.w3.org/2000/svg" style="display:none">
  <symbol id="icon-email" viewBox="0 0 24 24">
    <path d="M4 6c-.55 0-1 .45-1 1v10c0 .55.45 1 1 1h16c.55 0 1-.45 1-1V7c0-.55-.45-1-1-1H4zm0-2h16a3 3 0 0 1 3 3v10a3 3 0 0 1-3 3H4a3 3 0 0 1-3-3V7a3 3 0 0 1 3-3zm8 7.03L5.17 8.11a1 1 0 0 1 1.03-1.72L12 9.94l5.8-3.55a1 1 0 1 1 1.03 1.72L12 11.03z"/>
  </symbol>
  <symbol id="icon-phone" viewBox="0 0 24 24">
    <path d="M6.62 10.79a15.05 15.05 0 0 0 6.59 6.59l2.2-2.2a1 1 0 0 1 .98-.25 11.36 11.36 0 0 0 3.56.57 1 1 0 0 1 1 1V20a1 1 0 0 1-1 1C11.4 21 3 12.6 3 2a1 1 0 0 1 1-1h3.5a1 1 0 0 1 1 1 11.36 11.36 0 0 0 .57 3.56 1 1 0 0 1-.25.98l-2.2 2.2z"/>
  </symbol>
  <symbol id="icon-location" viewBox="0 0 24 24">
    <path d="M12 2a7 7 0 0 0-7 7c0 5.25 7 13 7 13s7-7.75 7-13a7 7 0 0 0-7-7zm0 9.5a2.5 2.5 0 1 1 0-5 2.5 2.5 0 0 1 0 5z"/>
  </symbol>
  <symbol id="icon-linkedin" viewBox="0 0 24 24">
    <path d="M6.5 6.5A2.5 2.5 0 1 1 4 4a2.5 2.5 0 0 1 2.5 2.5zM3 8.75h3v12.5H3zm6.75 0h2.85v1.7h.04c.4-.75 1.4-1.54 2.9-1.54 3.1 0 3.68 2.04 3.68 4.7v7.64h-3v-6.78c0-1.62-.03-3.7-2.25-3.7-2.25 0-2.6 1.76-2.6 3.58v6.9h-3z"/>
  </symbol>
</svg>