<svg xmlns="http://www.w3.org/2000/svg" style="display:none">
  <symbol id="icon-email" viewBox="0 0 24 24">
    <path d="M4 6c-.55 0-1 .45-1 1v10c0 .55.45 1 1 1h16c.55 0 1-.45 1-1V7c0-.55-.45-1-1-1H4zm0-2h16a3 3 0 0 1 3 3v10a3 3 0 0 1-3 3H4a3 3 0 0 1-3-3V7a3 3 0 0 1 3-3zm8 7.03L5.17 8.11a1 1 0 0 1 1.03-1.72L12 9.94l5.8-3.55a1 1 0 1 1 1.03 1.72L12 11.03z"/>
  </symbol>
  <symbol id="icon-phone" viewBox="0 0 24 24">
    <path d="M6.62 10.79a15.05 15.05 0 0 0 6.59 6.59l2.2-2.2a1 1 0 0 1 .98-.25 11.36 11.36 0 0 0 3.56.57 1 1 0 0 1 1 1V20a1 1 0 0 1-1 1C11.4 21 3 12.6 3 2a1 1 0 0 1 1-1h3.5a1 1 0 0 1 1 1 11.36 11.36 0 0 0 .57 3.56 1 1 0 0 1-.25.98l-2.2 2.2z"/>
  </symbol>
  <symbol id="icon-location" viewBox="0 0 24 24">
    <path d="M12 2a7 7 0 0 0-7 7c0 5.25 7 13 7 13s7-7.75 7-13a7 7 0 0 0-7-7zm0 9.5a2.5 2.5 0 1 1 0-5 2.5 2.5 0 0 1 0 5z"/>
  </symbol>
  <symbol id="icon-linkedin" viewBox="0 0 24 24">
    <path d="M6.5 6.5A2.5 2.5 0 1 1 4 4a2.5 2.5 0 0 1 2.5 2.5zM3 8.75h3v12.5H3zm6.75 0h2.85v1.7h.04c.4-.75 1.4-1.54 2.9-1.54 3.1 0 3.68 2.04 3.68 4.7v7.64h-3v-6.78c0-1.62-.03-3.7-2.25-3.7-2.25 0-2.6 1.76-2.6 3.58v6.9h-3z"/>
  </symbol>
  <symbol id="icon-achievement-ar" viewBox="0 0 24 24">
    <path d="M7 4h10a3 3 0 0 1 3 3v10H4V7a3 3 0 0 1 3-3zm0 2a1 1 0 0 0-1 1v8h12V7a1 1 0 0 0-1-1zm2 2h2l.75 2h.5L13 8h2l2 5h-1.9l-.25-.75h-2.7L10 13H8zm1.45 3h1.1L11 9.9zm5.55 4a1.5 1.5 0 1 1-1.5 1.5V17z"/>
  </symbol>
  <symbol id="icon-achievement-ai" viewBox="0 0 24 24">
    <path d="M9 3h6a3 3 0 0 1 3 3v1h1a3 3 0 0 1 3 3v4a3 3 0 0 1-3 3h-1v1a3 3 0 0 1-3 3H9a3 3 0 0 1-3-3v-1H5a3 3 0 0 1-3-3V10a3 3 0 0 1 3-3h1V6a3 3 0 0 1 3-3zm0 2a1 1 0 0 0-1 1v2H6a1 1 0 0 0-1 1v4a1 1 0 0 0 1 1h2v2a1 1 0 0 0 1 1h6a1 1 0 0 0 1-1v-2h2a1 1 0 0 0 1-1V9a1 1 0 0 0-1-1h-2V6a1 1 0 0 0-1-1zm3 4a2 2 0 1 1-2 2 2 2 0 0 1 2-2z"/>
  </symbol>
  <symbol id="icon-achievement-team" viewBox="0 0 24 24">
    <path d="M8 4a3 3 0 1 1-3 3 3 3 0 0 1 3-3zm8 0a3 3 0 1 1-3 3 3 3 0 0 1 3-3zM8 10a4 4 0 0 1 4 4v4H2v-4a4 4 0 0 1 4-4zm8 0a4 4 0 0 1 4 4v4h-8v-4a4 4 0 0 1 4-4z"/>
  </symbol>
  <symbol id="icon-achievement-world" viewBox="0 0 24 24">
    <path d="M12 2a10 10 0 1 1-10 10A10 10 0 0 1 12 2zm0 2a8 8 0 0 0-2 .26V6h2v2h-2v2h2v2h-2v2h4v2H8.9A6 6 0 1 0 18 12a6 6 0 0 0-.3-1.9A10 10 0 0 0 12 4z"/>
  </symbol>
</svg>
